<?xml version="1.0" encoding="UTF-8"?>
<svg id="Layer_1" xmlns="http://www.w3.org/2000/svg"
  viewBox="0 0 12.21 10.17" class="mail-icon" fill="#FFF">
  <g id="letter">
    <g id="Path_3525">
      <path
        d="m10.69,10.17H1.52c-.84,0-1.52-.68-1.52-1.52v-4.07c0-.28.22-.5.5-.5s.5.22.5.5v4.07c0,.29.23.52.52.52h9.17c.29,0,.52-.23.52-.52v-4.07c0-.28.22-.5.5-.5s.5.22.5.5v4.07c0,.84-.68,1.52-1.52,1.52Z"
        fill="inherit" />
    </g>
    <g id="Path_3526">
      <path
        d="m6.1,6.09c-.08,0-.17-.02-.24-.06L.26,2.98c-.16-.09-.26-.26-.26-.44v-1.02C0,.68.68,0,1.52,0h9.17c.84,0,1.52.68,1.52,1.52v1.02c0,.18-.1.35-.26.44l-5.6,3.06c-.07.04-.16.06-.24.06ZM1,2.24l5.1,2.78,5.1-2.78v-.72c0-.29-.23-.52-.52-.52H1.52c-.29,0-.52.23-.52.52v.72Zm10.71.3h0,0Z"
        fill="inherit" />
    </g>
  </g>
</svg>